<svg width="40" height="40" viewBox="0 0 40 40" fill="none" xmlns="http://www.w3.org/2000/svg">
<path d="M15.8332 5H24.1665C24.8295 5 25.4654 5.26339 25.9343 5.73223C26.4031 6.20107 26.6665 6.83696 26.6665 7.5C26.6665 9.0471 26.0519 10.5308 24.958 11.6248C23.864 12.7188 22.3803 13.3333 20.8332 13.3333H19.1665C17.6194 13.3333 16.1357 12.7188 15.0417 11.6248C13.9478 10.5308 13.3332 9.0471 13.3332 7.5C13.3332 6.83696 13.5966 6.20107 14.0654 5.73223C14.5342 5.26339 15.1701 5 15.8332 5Z" stroke="white" stroke-width="3" stroke-linecap="round" stroke-linejoin="round"/>
<path d="M6.6665 28.3333V26.6667C6.6665 23.1304 8.07126 19.7391 10.5717 17.2386C13.0722 14.7381 16.4636 13.3333 19.9998 13.3333C23.5361 13.3333 26.9274 14.7381 29.4279 17.2386C31.9284 19.7391 33.3332 23.1304 33.3332 26.6667V28.3333C33.3332 30.1014 32.6308 31.7971 31.3805 33.0474C30.1303 34.2976 28.4346 35 26.6665 35H13.3332C11.5651 35 9.86937 34.2976 8.61913 33.0474C7.36888 31.7971 6.6665 30.1014 6.6665 28.3333Z" stroke="white" stroke-width="3" stroke-linecap="round" stroke-linejoin="round"/>
</svg>
